<svg width="508" height="185" viewBox="0 0 508 185" fill="none" xmlns="http://www.w3.org/2000/svg">
<circle cx="93" cy="108" r="4" fill="#FF3D4E"/>
<circle cx="101.5" cy="113.5" r="2.5" fill="#FF3D4E"/>
<path d="M95 117.5C95 118.328 94.3284 119 93.5 119C92.6716 119 92 118.328 92 117.5C92 116.672 92.6716 116 93.5 116C94.3284 116 95 116.672 95 117.5Z" fill="#FF3D4E"/>
<path d="M74.9405 48.2232C74.9405 48.2232 113.05 40.7449 101.697 5C101.697 5 67.4316 11.0321 74.9405 48.2232Z" stroke="#4E6C50" stroke-width="8.50343" stroke-linecap="round" stroke-linejoin="round"/>
<path d="M57.1381 38.657C57.1381 38.657 75.8035 43.967 85.914 65.5863" stroke="#4E6C50" stroke-width="9.14222" stroke-linecap="round" stroke-linejoin="round"/>
<path d="M54.0859 108.68C59.6903 90.3837 80.593 80.9706 98.8731 86.5466C120.161 93.04 131.057 116.312 124.321 136.62C116.615 159.851 89.7915 171.696 66.4316 164.128C40.0821 155.592 26.6893 126.536 35.4725 101.276C45.2674 73.1059 78.0284 58.8242 106.465 68.3918C119.824 72.8869 131.204 82.1603 138.275 94.0783" stroke="#FF3D4E" stroke-width="9.75651" stroke-linecap="round"/>
<path d="M179.273 131.29L176.469 128.835L174.292 130.323C168.559 134.241 160.317 134.236 154.469 130.313C150.942 127.946 148.201 124.379 147.118 120.744C146.081 117.267 146.456 112.424 148.004 109.285C150.763 103.691 155.627 100.209 162.09 99.2016C170.809 97.8431 179.803 103.666 182.064 112.134C183.176 116.298 182.614 119.781 180.123 124.167L178.812 126.476L180.56 127.977C182.292 129.464 182.308 129.498 182.193 131.612L182.08 133.746L179.273 131.29ZM170.556 128.69C174.226 126.84 174.198 126.926 171.852 124.784C167.309 120.635 166.983 120.426 164.767 120.247C162.761 120.085 162.635 120.125 161.15 121.579C159.663 123.03 159.37 123.864 159.608 125.977C159.751 127.258 160.729 128.742 161.826 129.347C163.482 130.261 168.133 129.91 170.556 128.69ZM156.264 124.62C156.742 119.832 160.056 116.784 164.757 116.809C167.114 116.819 169.128 117.901 172.696 121.066C174.468 122.637 176.093 123.866 176.309 123.798C176.526 123.725 177.128 122.675 177.65 121.454C179.065 118.151 179.022 113.707 177.551 110.621C176.134 107.658 173.181 104.77 170.218 103.449C168.245 102.569 167.352 102.401 164.589 102.392C161.552 102.382 161.084 102.489 158.37 103.795C153.356 106.212 150.769 110.046 150.48 115.489C150.352 117.854 150.479 118.95 151.117 120.688C152 123.127 155.441 127.863 155.822 127.162C155.951 126.922 156.149 125.778 156.264 124.62ZM196.213 132.585C191.93 131.141 189.274 128.417 188.437 124.611C188.2 123.533 188.028 117.983 188.028 111.351V99.946H189.949H191.869V111.756C191.869 124.611 191.956 125.214 194.097 127.416C197.604 131.02 204.427 131.143 207.99 127.667C210.481 125.238 210.685 123.989 210.685 111.114V99.9453H212.432H214.179L214.067 112.399L213.955 124.852L212.876 126.996C212.282 128.175 211.08 129.739 210.204 130.47C207.082 133.077 200.586 134.059 196.213 132.585ZM242.659 132.706C233.069 130.187 227.602 121.077 230.09 111.761C230.937 108.589 232.378 106.238 234.932 103.862C241.765 97.5048 252.702 97.3838 259.505 103.591C260.532 104.529 261.371 105.399 261.368 105.526C261.366 105.652 260.776 106.127 260.059 106.579L258.753 107.403L257.279 106.047C256.47 105.301 254.682 104.173 253.31 103.541C251.134 102.539 250.395 102.391 247.55 102.391C244.699 102.391 243.969 102.539 241.79 103.546C238.62 105.013 236.233 107.339 234.722 110.435C233.663 112.605 233.534 113.237 233.541 116.241C233.541 119.091 233.706 119.942 234.571 121.753C235.912 124.568 238.552 127.271 241.271 128.613C243.097 129.513 244.049 129.72 246.947 129.839C251.283 130.018 253.893 129.175 256.743 126.676L258.679 124.978L260.026 125.79C260.767 126.236 261.373 126.741 261.373 126.914C261.373 127.487 257.75 130.351 255.805 131.318C251.843 133.285 246.869 133.812 242.659 132.706ZM304.766 132.934C301.502 131.963 298.803 129.726 297.5 126.917C296.283 124.291 296.398 123.921 298.439 123.921C299.981 123.921 300.222 124.042 300.578 124.949C303.192 131.654 313.246 131.571 315.529 124.825C316.238 122.731 315.838 119.876 314.578 118.021C313.05 115.773 311.403 114.903 307.962 114.526C302.877 113.971 300.178 111.805 299.857 108.024C299.61 105.119 300.02 103.501 301.389 101.98C305.281 97.6565 312.8 98.2169 315.363 103.021C316.287 104.756 316.082 105.194 314.341 105.194C313.061 105.194 312.556 104.962 311.542 103.915C309.961 102.279 308.065 101.88 306.131 102.775C303.47 104.006 302.717 107.577 304.67 109.702C305.578 110.69 306.13 110.905 308.607 111.234C310.19 111.446 312.264 111.951 313.214 112.357C319.023 114.841 321.451 121.59 318.563 127.227C317.192 129.903 315.375 131.503 312.528 132.543C310.448 133.302 306.647 133.494 304.766 132.934ZM369.319 132.691C355.928 129.178 351.737 112.769 361.907 103.664C370.831 95.6743 385.328 98.2895 390.682 108.855C391.909 111.277 392.107 112.052 392.251 114.995C392.68 123.76 387.616 130.535 378.997 132.725C376.26 133.421 372.044 133.407 369.319 132.691ZM380.507 128.669C383.308 127.328 385.827 124.875 387.186 122.167C388.675 119.197 388.914 114.555 387.735 111.503C385.5 105.721 380.442 102.355 374.072 102.41C370.18 102.446 367.274 103.64 364.41 106.389C358.149 112.4 358.878 122.103 365.985 127.342C368.699 129.343 370.759 129.917 374.847 129.813C377.749 129.74 378.656 129.556 380.507 128.669ZM220.669 116.242V99.949H222.397H224.125V116.242V132.534H222.397H220.669V116.242ZM267.518 116.242V99.949H269.246H270.974V111.756V123.564L271.958 123.929C272.5 124.129 273.062 124.29 273.206 124.288C273.35 124.284 276.94 118.848 281.182 112.209L288.894 100.137L290.878 100.027C291.969 99.9664 292.861 100.026 292.861 100.162C292.861 100.298 289.565 105.551 285.536 111.835C281.508 118.118 278.121 123.489 278.01 123.771C277.877 124.114 279.949 125.648 284.279 128.411L290.748 132.538H287.325H283.902L279.726 129.916C277.429 128.474 275.496 127.295 275.43 127.295C275.368 127.295 274.505 128.475 273.522 129.916L271.734 132.538H269.626H267.517L267.518 116.242ZM325.502 116.242V99.949H327.231H328.959V110.062V120.174H338.175H347.39V110.062V99.949H349.118H350.847V116.242V132.534H349.118H347.39V128.04V123.545H338.175H328.959V128.04V132.534H327.231H325.502V116.242ZM397.695 116.242V99.949L405.663 99.9477C415.425 99.9448 416.359 100.18 419.806 103.504C422.549 106.149 423.424 108.189 423.424 111.942C423.424 116.47 420.779 120.264 416.145 122.384C414.164 123.29 413.566 123.367 407.583 123.484L401.151 123.609V128.072V132.535H399.423H397.695V116.242ZM414.95 119.25C418.007 117.739 419.63 115.116 419.635 111.674C419.642 107.785 417.175 104.605 413.299 103.506C411.796 103.08 409.906 102.95 406.293 103.028L401.343 103.137L401.243 111.658L401.144 120.179H407.116C412.703 120.179 413.201 120.114 414.95 119.25ZM428.799 116.242V99.949H440.704H452.608V101.441V102.933L442.528 103.03L432.448 103.128L432.348 111.648L432.248 120.169H440.703H449.158V121.855V123.54H440.71H432.263V126.349V129.158H442.438H452.615V130.844V132.529H440.71H428.806L428.799 116.242ZM457.6 116.242V99.949H469.504H481.409V101.447V102.945H471.424H461.44V111.56V120.174H469.888H478.336V121.86V123.545H469.888H461.44V126.354V129.163H471.424H481.409V130.849V132.534H469.504H457.6V116.242Z" fill="#4E6C50"/>
<circle cx="499" cy="117" r="9" fill="#4E6C50"/>
<circle cx="9" cy="117" r="9" fill="#4E6C50"/>
</svg>
