<svg width="318" height="388" viewBox="0 0 318 388" fill="none" xmlns="http://www.w3.org/2000/svg">
<circle cx="150" cy="159" r="4" fill="#FF3D4E"/>
<circle cx="158.5" cy="164.5" r="2.5" fill="#FF3D4E"/>
<path d="M152 168.5C152 169.328 151.328 170 150.5 170C149.672 170 149 169.328 149 168.5C149 167.672 149.672 167 150.5 167C151.328 167 152 167.672 152 168.5Z" fill="#FF3D4E"/>
<path d="M120.503 96.304C120.503 96.304 137.396 101.11 146.546 120.676" stroke="#4E6C50" stroke-width="8.27408" stroke-linecap="round" stroke-linejoin="round"/>
<path d="M136.615 104.962C136.615 104.962 171.106 98.1935 160.831 65.843C160.831 65.843 129.82 71.3023 136.615 104.962Z" stroke="#4E6C50" stroke-width="7.69594" stroke-linecap="round" stroke-linejoin="round"/>
<path d="M117.741 159.678C122.813 143.119 141.731 134.599 158.275 139.646C177.542 145.523 187.404 166.585 181.307 184.964C174.333 205.99 150.056 216.709 128.915 209.861C105.067 202.135 92.9462 175.838 100.895 152.976C109.76 127.482 139.41 114.556 165.146 123.215C177.237 127.283 187.536 135.676 193.935 146.462" stroke="#FF3D4E" stroke-width="8.83004" stroke-linecap="round"/>
<path d="M188.368 214.516C188.368 214.516 240.311 210.114 240.618 152.399C240.618 152.399 190.922 152.778 188.368 214.516Z" fill="#FFB100"/>
<path d="M252.235 256.99C252.235 256.99 266.889 223.448 231.92 205.287C231.92 205.287 215.572 236.184 252.235 256.99Z" fill="#EF9F9F"/>
<path d="M225.217 83.3171C225.217 83.3171 211.877 53.4942 184.31 68.9978C184.31 68.9978 188.429 99.2673 225.217 83.3171Z" fill="#FFB100"/>
<path d="M170.686 259.231C170.686 259.231 163.615 221.72 196.419 228.615C196.419 228.615 211.69 264.196 170.686 259.231Z" fill="#A4D0A4"/>
<path d="M165.261 230.263C165.261 230.263 121.443 213.99 99.8173 257.626C99.8173 257.626 140.319 276.1 165.261 230.263Z" fill="#EF9F9F"/>
<path d="M107.422 228.484C107.422 228.484 110.264 182.339 60.5698 175.188C60.5698 175.188 54.5477 218.879 107.422 228.484Z" fill="#FFB100"/>
<path d="M63.1391 257.363C63.1391 257.363 56.0698 219.852 88.8731 226.748C88.8731 226.748 104.143 262.328 63.1391 257.363Z" fill="#AACB73"/>
<path d="M112.61 65.9466C112.61 65.9466 59.8831 70.6896 61.3214 115.629C61.3214 115.629 111.883 114.075 112.61 65.9466Z" fill="#A4D0A4"/>
<path d="M89.5003 167.123C85.7477 163.005 59.949 165.293 59.949 123.202C59.949 123.202 89.9695 126.862 89.5003 167.123Z" fill="#AACB73"/>
<path d="M92.096 131.405C92.096 131.405 91.4327 111.024 112.66 106.172C112.66 106.172 119.293 126.553 92.096 131.405Z" fill="#EF9F9F"/>
<path d="M229.412 132.311C180.301 137.365 166.393 95.2433 166.393 95.2433C166.393 95.2433 207.247 69.9701 229.412 132.311Z" fill="#EF9F9F"/>
<path d="M257.896 135.555C254.144 131.437 228.345 133.724 228.345 91.6337C228.345 91.6337 258.365 95.2937 257.896 135.555Z" fill="#A4D0A4"/>
<path d="M240.997 202.659C241.931 197.981 228.801 181.443 255.693 159.948C255.693 159.948 266.932 182.42 240.997 202.659Z" fill="#AACB73"/>
<path d="M92.5975 56.5156C92.5975 56.5156 150.85 -59.0896 217.468 56.0592" stroke="#FFB100" stroke-width="8.15111" stroke-linecap="round" stroke-linejoin="round"/>
<path d="M65.8603 343.642C62.8196 340.964 60.2217 338.773 60.0864 338.773C59.9481 338.773 58.921 339.463 57.7991 340.308C54.9533 342.449 49.5064 345.185 45.9393 346.266C43.2759 347.073 42.1559 347.175 36.1197 347.161C29.5427 347.146 29.1749 347.101 25.499 345.898C13.7789 342.058 4.60247 333.005 1.3561 322.081C0.585072 319.486 0.452332 318.13 0.463653 312.973C0.463653 307.141 0.526711 306.771 1.81595 303.105C5.69499 292.071 15.1355 283.36 26.7047 280.138C31.0478 278.929 38.6739 278.646 43.1403 279.529C50.2122 280.926 55.8218 283.708 60.8599 288.315C65.8068 292.84 69.194 298.047 71.18 304.178C72.2963 307.624 72.7135 314.605 72.0141 318.137C71.4167 321.162 69.0056 326.777 66.6145 330.721L64.8227 333.678L68.1902 336.518L71.5581 339.359V343.952C71.5581 346.478 71.4954 348.538 71.4702 348.529C71.4073 348.52 68.8823 346.321 65.8422 343.642H65.8603ZM44.7697 339.603C47.6293 338.713 54.556 334.847 54.556 334.142C54.556 333.467 42.4654 322.897 40.8038 322.119C35.8097 319.779 29.5804 321.951 27.2428 326.847C24.8348 331.891 27.463 338.246 32.7683 340.216C34.7777 340.963 41.5083 340.618 44.7697 339.603ZM19.6664 330.568C20.4104 324.577 21.6019 321.912 24.891 318.878C30.0454 314.123 37.5366 312.924 43.6923 315.87C44.901 316.449 48.5613 319.336 52.6359 322.925C56.4301 326.266 59.601 329 59.6834 329C60.0733 329 63.2298 321.864 63.8297 319.618C64.7215 316.279 64.7259 310.084 63.8297 306.719C63.4587 305.321 62.4122 302.682 61.499 300.855C60.1481 298.152 59.1583 296.868 56.1911 293.968C53.0561 290.904 52.0078 290.153 48.7357 288.63C43.8183 286.341 41.4604 285.811 36.3116 285.835C28.8504 285.87 22.604 288.258 17.2716 293.115C11.27 298.582 8.25073 305.297 8.26268 313.153C8.26268 320.33 9.96828 324.753 15.3693 331.699C17.2754 334.152 18.8843 335.999 18.944 335.804C19.0069 335.609 19.3274 333.253 19.6576 330.568H19.6664ZM107.266 346.564C100.95 344.951 96.5839 342.144 93.4759 337.697C91.2232 334.475 90.1991 331.727 89.6451 327.418C89.3935 325.47 89.224 315.264 89.224 302.331V280.528H93.0314H96.8392V303.314C96.8392 322.524 96.9336 326.46 97.4556 328.4C99.2656 335.179 104.57 339.636 112.203 340.793C120.258 342.013 128.491 338.574 131.827 332.596C134.076 328.564 134.113 328.096 134.113 303.314V280.528H137.72H141.328V304.291C141.328 330.403 141.327 330.227 138.846 335.254C137.114 338.746 132.805 342.925 129.222 344.586C124.8 346.636 121.08 347.375 115.312 347.351C111.649 347.335 109.443 347.12 107.266 346.564ZM212.663 346.815C200.627 344.209 191.043 336.63 186.785 326.349C185.212 322.551 184.576 319.636 184.335 315.123C183.801 305.163 186.917 296.809 193.764 289.819C198.977 284.497 205.16 281.172 212.659 279.658C217.617 278.657 225.443 278.859 229.682 280.097C235.986 281.938 241.443 285.169 245.882 289.691L248.442 292.298L245.579 294.036C244.004 294.991 242.618 295.773 242.499 295.773C242.381 295.773 241.389 294.902 240.298 293.838C236.754 290.381 231.516 287.501 226.69 286.358C223.581 285.621 216.656 285.701 213.464 286.51C203.634 289.004 195.536 296.947 193.012 306.571C189.858 318.599 195.808 331.74 207.044 337.56C211.641 339.941 214.318 340.532 220.478 340.525C225.524 340.518 226.396 340.412 229.134 339.473C233.289 338.046 236.67 336.037 239.871 333.092L242.562 330.615L245.448 332.38L248.333 334.145L246.94 335.803C242.644 340.916 234.955 345.255 227.463 346.792C224.072 347.488 215.83 347.5 212.663 346.815ZM160.161 313.168V280.528H163.968H167.775V313.168V345.809H163.968H160.161V313.168ZM265.967 313.168V280.528H269.571H273.175L273.279 304.238L273.383 327.948L275.565 328.672C276.765 329.069 277.877 329.262 278.034 329.1C278.192 328.938 285.118 318.162 293.426 305.155C301.733 292.148 308.751 281.279 309.021 281.002C309.373 280.641 310.653 280.531 313.557 280.611L317.603 280.723L302.206 304.69C293.738 317.872 286.811 328.778 286.812 328.926C286.812 329.074 292.626 332.933 299.727 337.502L312.638 345.809H305.683H298.729L290.556 340.727C286.061 337.932 282.252 335.652 282.091 335.659C281.93 335.667 280.2 337.954 278.244 340.741L274.688 345.809H270.328H265.969L265.967 313.168Z" fill="#4E6C50"/>
<path d="M67.9998 387.318C66.9319 387.153 64.8219 386.328 63.749 385.658C61.6089 384.32 59.8645 381.872 59.3129 379.435L59.1114 378.531H60.8901H62.6685L63.0397 379.541C65.2207 385.517 73.9089 385.842 76.6924 380.051C77.1767 379.047 77.2709 378.553 77.2709 377.043C77.2709 375.532 77.1767 375.039 76.6924 374.035C75.461 371.472 73.3128 370.102 70.0545 369.801C68.9382 369.698 67.7501 369.55 67.4156 369.471C65.3113 368.977 63.0908 367.021 62.4248 365.077C62.1858 364.387 62.0473 363.342 62.0536 362.317C62.0536 360.907 62.1667 360.47 62.7472 359.31C63.5497 357.721 64.7464 356.591 66.4533 355.81C67.5331 355.316 67.9503 355.25 69.9678 355.25C72.0199 355.25 72.3814 355.31 73.47 355.831C75.3919 356.752 76.8338 358.392 77.3929 360.294L77.5626 360.884L75.78 360.876L73.9963 360.868L73.4239 360.056C71.741 357.68 67.9801 357.817 66.3953 360.312C64.6149 363.116 66.7349 366.625 70.2165 366.625C72.9692 366.625 76.0805 367.877 78.0125 369.761C80.0671 371.765 81.0833 374.181 81.0833 377.059C81.0833 381.998 77.6251 386.118 72.609 387.155C71.2494 387.436 69.2211 387.508 67.9998 387.318ZM140.044 387.309C137.356 386.947 133.677 385.383 131.548 383.698C129.013 381.692 126.893 378.47 126.05 375.342C125.534 373.427 125.528 369.136 126.05 367.263C127.723 361.15 133.003 356.449 139.429 355.35C141.655 354.97 145.729 355.183 147.681 355.781C153.471 357.557 157.657 361.732 159.165 367.234C159.736 369.319 159.778 372.895 159.257 375.023C157.756 381.156 152.398 385.998 145.828 387.158C144.283 387.43 141.493 387.504 140.052 387.309L140.044 387.309ZM145.909 383.852C148.435 383.222 150.04 382.303 152.033 380.348C154.772 377.661 155.908 374.972 155.894 371.21C155.894 367.443 154.549 364.487 151.682 361.848C149.126 359.497 146.106 358.33 142.595 358.336C136.433 358.348 131.164 362.42 129.67 368.326C128.503 372.935 130.544 378.667 134.348 381.469C137.761 383.982 141.937 384.843 145.909 383.852ZM91.3243 371.196V355.782H93.0678H94.8116V365.349V374.917H103.422H112.033V365.349V355.782H113.776H115.521V371.196V386.611H113.776H112.033V382.356V378.101L103.477 378.157L94.921 378.213L94.858 382.412L94.7951 386.611H93.0563H91.3174L91.3243 371.196ZM169.799 371.179V355.747L177.156 355.83C183.997 355.908 184.613 355.946 185.945 356.376C190.776 357.936 194.06 362.255 194.039 367.022C194.039 372.074 190.691 376.263 185.508 377.763C184.555 378.039 183.248 378.106 178.805 378.106H173.287V382.359V386.611H171.543H169.799V371.179ZM185.766 374.22C188.284 373.006 189.732 371.109 190.319 368.257C191.143 364.258 187.965 359.996 183.557 359.187C182.911 359.068 180.336 358.971 177.834 358.971H173.287V367.067V375.162L178.694 375.093L184.101 375.023L185.766 374.22ZM204.022 371.196V355.782H215.249H226.475V357.376V358.971H217.101H207.728V367.05V375.13H215.575H223.423V376.618V378.106H215.575H207.728V380.764V383.422H217.101H226.475V385.016V386.611H215.249H204.022V371.196ZM236.502 371.196V355.782H247.728H258.955V357.374V358.967L249.527 359.022L240.099 359.077V367.05V375.023L248.001 375.079L255.903 375.135V376.618V378.101L248.001 378.156L240.099 378.212L240.036 380.817L239.973 383.421H249.462H258.951V385.016V386.61H247.725H236.499L236.502 371.196Z" fill="#FF3D4E"/>
<circle cx="241.5" cy="75.5" r="7.5" fill="#AACB73"/>
<circle cx="216.5" cy="245.5" r="7.5" fill="#FFB100"/>
<circle cx="213" cy="148" r="4" fill="#4E6C50"/>
<circle cx="127" cy="72" r="4" fill="#4E6C50"/>
<circle cx="89.5" cy="61.5" r="4.2" stroke="#FFB100" stroke-width="4.6"/>
<circle cx="220.5" cy="61.5" r="4.2" stroke="#FFB100" stroke-width="4.6"/>
</svg>
