<svg width="90" height="90" viewBox="0 0 90 90" fill="none" xmlns="http://www.w3.org/2000/svg">
<path d="M7.12185 88.6904C3.05451 87.3899 0.926208 84.4261 0.209231 79.0644C-0.646378 72.6658 1.0346 64.5915 6.87646 47.0394L9.51278 39.1183V34.337V29.5558H14.6664H19.8201L19.6553 30.3029C19.2111 32.3161 18.7664 36.8412 18.5832 41.2122C18.3882 45.8692 18.4082 46.0891 19.0938 46.7746C20.0416 47.7224 21.2664 47.6835 22.0554 46.6805C22.5993 45.9892 22.7244 45.0659 22.9215 40.2879C23.0481 37.2164 23.3334 33.5825 23.5553 32.2126L23.9586 29.722H44.548H65.1374L65.5407 32.2126C65.7626 33.5825 66.0478 37.2164 66.1745 40.2879C66.3718 45.0659 66.4969 45.9892 67.0406 46.6805C67.8296 47.6836 69.0544 47.7227 70.0021 46.775C70.6907 46.0864 70.7079 45.8854 70.4932 41.0465C70.2899 36.4661 69.9257 32.8522 69.4268 30.4692L69.2356 29.5559H74.5754H79.9151L79.9139 34.1222L79.9126 38.6883L82.8875 47.6547C87.5534 61.7177 89.1571 68.2532 89.4533 74.4128C89.7674 80.9392 88.3552 85.115 85.0545 87.4218C82.2593 89.3753 83.3398 89.3249 44.5481 89.3097C11.1043 89.2983 8.90341 89.26 7.12185 88.6904ZM19.6652 46.3024C18.0636 44.7008 20.1957 27.7109 22.9549 20.0886C25.3307 13.5252 29.5234 7.01185 33.1469 4.25526C36.5241 1.68608 40.9196 0 44.2402 0C48.3188 0 53.2083 1.88164 56.4716 4.70699C64.2583 11.4488 69.1281 24.7177 69.8384 41.1273L70.0549 46.1277L69.1613 46.5349C67.4823 47.2999 67.2217 46.5768 66.913 40.2967C66.5057 32.0147 65.3995 26.1452 63.0733 19.9252C60.2025 12.2487 56.0644 7.0475 50.7089 4.38467C48.3034 3.18864 48.1341 3.15489 44.5481 3.15489C40.9272 3.15489 40.8131 3.17752 38.2212 4.45878C33.3179 6.88108 28.9686 12.262 26.2738 19.2398C23.8147 25.6072 22.6877 31.3331 22.122 40.3338C21.9273 43.4307 21.6075 46.158 21.4113 46.3944C20.9337 46.9699 20.2993 46.9363 19.6652 46.3024Z"


 fill="#fff"/>
</svg>
